<svg width="301" height="262" viewBox="0 0 301 262" fill="none" xmlns="http://www.w3.org/2000/svg"><g clip-path="url(#clip0_6_186)"><path d="M26.3887 157.208C26.5043 158.906 26.2572 159.527 26.4326 160.171C47.4792 200.067 78.9463 228.075 122.739 240.497C133.79 243.661 145.43 243.898 157.003 241.593C181.85 236.868 199.906 217.377 202.806 192.374C204.392 179.352 203.63 166.62 197.094 154.829C191.017 153.638 184.928 152.659 179.297 151.071C170.123 148.436 162.794 143.156 158.638 134.25C155.405 127.722 155.764 121.397 159.334 118.216C164.021 114.04 169.935 114.376 174.637 117.391C181.181 121.569 187.254 126.566 192.893 131.75C196.516 135.128 199.445 139.523 202.398 143.498C226.468 141.267 237.885 119.284 229.487 91.738C226.156 90.7032 222.613 89.6564 219.293 88.4108C207.071 83.4883 198.008 75.1496 194.29 62.2495C192.875 57.3051 192.54 51.9989 197.215 48.0341C200.773 45.0635 206.687 45.3987 212.41 49.1068C221.392 55.1147 227.474 63.7074 232.675 72.8847C234.396 76.1546 236.118 79.4246 237.629 82.6825C274.829 80.5613 302.896 48.9484 289.951 15.6455C292.685 16.012 295.02 15.9328 296.239 16.8479C297.658 17.9858 298.372 20.3526 298.686 22.2738C301.05 40.3843 297.994 56.9186 284.122 69.8791C273.821 79.6581 261.599 85.9445 247.819 89.8162C245.882 90.3409 243.945 90.8656 241.997 91.6011C241.785 91.5891 241.55 91.9987 240.869 92.806C240.972 94.7153 240.841 97.0342 241.132 99.3771C243.966 127.877 235.526 142.203 208.384 153.777C209.086 156.354 209.763 159.354 210.664 162.154C215.235 178.698 214.738 194.954 208.314 211.086C197.926 237.356 173.924 253.338 144.669 253.583C128.769 253.739 113.717 250.137 99.2549 243.607C64.3489 227.67 37.5484 203.31 21.1088 168.118C20.1483 166.371 19.411 164.426 18.4506 162.68C18.2513 162.457 17.8408 162.222 16.6094 161.518C14.5134 168.59 14.7647 175.372 14.8048 182.141C14.6456 188.689 14.8968 195.47 14.913 202.662C9.45735 201.718 7.51255 198.647 6.44843 194.992C5.42012 190.703 3.96943 186.391 3.9972 182.163C4.22002 170.756 4.66596 159.149 5.95681 147.59C7.10424 138.561 12.1055 136.307 19.2708 140.731C34.4105 150.261 49.5382 160 64.666 169.74C67.1168 171.36 69.1214 173.377 71.9469 175.863C67.0732 179.605 63.7895 177.727 60.705 176.072C49.6342 169.523 38.5275 163.606 26.3887 157.208ZM203.192 54.7175C204.269 69.3712 213.048 78.9629 226.108 80.3375C220.321 70.2811 215.144 60.6822 203.192 54.7175ZM166.416 124.116C168.668 136.722 176.782 143.103 189.737 142.568C183.433 134.175 177.491 126.859 166.416 124.116Z" fill="black"/></g><defs><clipPath id="clip0_6_186"><rect width="246" height="287" fill="white" transform="translate(300.461 16.2413) rotate(93.2441)"/></clipPath></defs></svg>